<?xml version="1.0" encoding="UTF-8"?>
<svg id="g-ascri-Artboard_1-group2006-img" xmlns="http://www.w3.org/2000/svg" baseProfile="tiny" version="1.2" viewBox="0 0 1200 800">
  <!-- Generator: Adobe Illustrator 29.5.0, SVG Export Plug-In . SVG Version: 2.1.0 Build 137)  -->
  <g id="_x32_006">
    <g id="General_Dynamics">
      <path id="p_1308.8027309000297" d="M752.004,485.758c-70.397.007-127.471-57.055-127.478-127.452-.007-70.397,57.055-127.471,127.452-127.478h.026c70.397-.007,127.471,57.055,127.478,127.452.007,70.397-57.055,127.471-127.452,127.478h-.026Z" fill="#577590"/>
    </g>
    <path id="p_1341.631418815377" d="M624.861,682.038c-62.884.009-113.87-50.961-113.879-113.845-.009-62.884,50.961-113.87,113.845-113.879h.034c62.884-.009,113.87,50.961,113.879,113.845.009,62.884-50.961,113.87-113.845,113.879" fill="#90be6d"/>
    <g id="Lockheed_Martin">
      <path id="p_1185.8237690595624" d="M487.641,491.127c-73.362,0-132.834-59.472-132.834-132.834s59.472-132.834,132.834-132.834,132.834,59.472,132.834,132.834-59.472,132.834-132.834,132.834Z" fill="#f4a261"/>
    </g>
  </g>
<style>
#g-ascri-Artboard_1-group2006-img rect, #g-ascri-Artboard_1-group2006-img circle, #g-ascri-Artboard_1-group2006-img path, #g-ascri-Artboard_1-group2006-img line, #g-ascri-Artboard_1-group2006-img polyline, #g-ascri-Artboard_1-group2006-img polygon { vector-effect: non-scaling-stroke; }
</style>
</svg>
