<?xml version="1.0" encoding="UTF-8"?>
<svg id="g-ascri-Artboard_1-group2016-img" xmlns="http://www.w3.org/2000/svg" baseProfile="tiny" version="1.2" viewBox="0 0 1200 800">
  <!-- Generator: Adobe Illustrator 29.5.0, SVG Export Plug-In . SVG Version: 2.1.0 Build 137)  -->
  <g id="Caterpillar_Inc.">
    <path id="p_717.3456713788878" d="M353.709,396.168c-41.386.007-74.942-33.538-74.949-74.924-.007-41.386,33.538-74.942,74.924-74.949h.025c41.386-.007,74.942,33.538,74.949,74.924.007,41.386-33.538,74.942-74.924,74.949h-.025Z" fill="none" stroke="#2a9d8f" stroke-dasharray="12" stroke-miterlimit="10" stroke-width="4"/>
  </g>
  <g id="Caterpillar_Inc.1" data-name="Caterpillar_Inc.">
    <path id="p_717.34567137888781" data-name="p_717.3456713788878" d="M517.293,392.282c-41.386.007-74.942-33.538-74.949-74.924-.007-41.386,33.538-74.942,74.924-74.949h.025c41.386-.007,74.942,33.538,74.949,74.924.007,41.386-33.538,74.942-74.924,74.949h-.025Z" fill="none" stroke="#277da1" stroke-dasharray="12" stroke-miterlimit="10" stroke-width="4"/>
  </g>
  <g id="Caterpillar_Inc.2" data-name="Caterpillar_Inc.">
    <path id="p_717.34567137888782" data-name="p_717.3456713788878" d="M683.285,392.282c-41.386.007-74.942-33.538-74.949-74.924-.007-41.386,33.538-74.942,74.924-74.949h.025c41.386-.007,74.942,33.538,74.949,74.924.007,41.386-33.538,74.942-74.924,74.949h-.025Z" fill="none" stroke="#e4c1f9" stroke-dasharray="12" stroke-miterlimit="10" stroke-width="4"/>
  </g>
  <g id="Caterpillar_Inc.3" data-name="Caterpillar_Inc.">
    <path id="p_717.34567137888783" data-name="p_717.3456713788878" d="M849.278,392.282c-41.386.007-74.942-33.538-74.949-74.924-.007-41.386,33.538-74.942,74.924-74.949h.025c41.386-.007,74.942,33.538,74.949,74.924.007,41.386-33.538,74.942-74.924,74.949h-.025Z" fill="none" stroke="#f94144" stroke-dasharray="12" stroke-miterlimit="10" stroke-width="4"/>
  </g>
  <g id="Caterpillar_Inc.4" data-name="Caterpillar_Inc.">
    <path id="p_717.34567137888784" data-name="p_717.3456713788878" d="M351.745,569.949c-41.386.007-74.942-33.538-74.949-74.924-.007-41.386,33.538-74.942,74.924-74.949h.025c41.386-.007,74.942,33.538,74.949,74.924.007,41.386-33.538,74.942-74.924,74.949h-.025Z" fill="none" stroke="#f4a261" stroke-dasharray="12" stroke-miterlimit="10" stroke-width="4"/>
  </g>
  <g id="Caterpillar_Inc.5" data-name="Caterpillar_Inc.">
    <path id="p_717.34567137888785" data-name="p_717.3456713788878" d="M515.329,566.063c-41.386.007-74.942-33.538-74.949-74.924-.007-41.386,33.538-74.942,74.924-74.949h.025c41.386-.007,74.942,33.538,74.949,74.924.007,41.386-33.538,74.942-74.924,74.949h-.025Z" fill="none" stroke="#57cc99" stroke-dasharray="12" stroke-miterlimit="10" stroke-width="4"/>
  </g>
  <g id="Caterpillar_Inc.6" data-name="Caterpillar_Inc.">
    <path id="p_717.34567137888786" data-name="p_717.3456713788878" d="M681.321,566.063c-41.386.007-74.942-33.538-74.949-74.924-.007-41.386,33.538-74.942,74.924-74.949h.025c41.386-.007,74.942,33.538,74.949,74.924.007,41.386-33.538,74.942-74.924,74.949h-.025Z" fill="none" stroke="#ffa5ab" stroke-dasharray="12" stroke-miterlimit="10" stroke-width="4"/>
  </g>
  <g id="Caterpillar_Inc.7" data-name="Caterpillar_Inc.">
    <path id="p_717.34567137888787" data-name="p_717.3456713788878" d="M847.313,566.063c-41.386.007-74.942-33.538-74.949-74.924-.007-41.386,33.538-74.942,74.924-74.949h.025c41.386-.007,74.942,33.538,74.949,74.924.007,41.386-33.538,74.942-74.924,74.949h-.025Z" fill="none" stroke="#e9c46a" stroke-dasharray="12" stroke-miterlimit="10" stroke-width="4"/>
  </g>
<style>
#g-ascri-Artboard_1-group2016-img rect, #g-ascri-Artboard_1-group2016-img circle, #g-ascri-Artboard_1-group2016-img path, #g-ascri-Artboard_1-group2016-img line, #g-ascri-Artboard_1-group2016-img polyline, #g-ascri-Artboard_1-group2016-img polygon { vector-effect: non-scaling-stroke; }
</style>
</svg>
